<svg width="170" height="170" viewBox="0 0 170 170" fill="none" xmlns="http://www.w3.org/2000/svg">
<g opacity="0.8" clip-path="url(#clip0_2327_2611)">
<path d="M53.2325 23.794C52.4404 24.5861 51.2455 24.5792 50.4442 23.7779C49.6429 22.9767 49.636 21.7817 50.4281 20.9896C51.2202 20.1976 52.4152 20.2045 53.2164 21.0057C54.0177 21.807 53.9586 23.068 53.2325 23.794Z" fill="#FFCF2D"/>
<path d="M65.1847 35.7462C64.3926 36.5382 63.1976 36.5314 62.3963 35.7301C61.5951 34.9288 61.5882 33.7338 62.3802 32.9418C63.1723 32.1497 64.3673 32.1566 65.1686 32.9579C65.9031 33.6924 65.9107 35.0201 65.1847 35.7462Z" fill="#FFCF2D"/>
<path d="M77.0699 47.6319C76.2778 48.424 75.0828 48.4171 74.2816 47.6158C73.4803 46.8146 73.4734 45.6196 74.2655 44.8275C75.0576 44.0355 76.2526 44.0423 77.0538 44.8436C77.8551 45.6449 77.796 46.9059 77.0699 47.6319Z" fill="#FFCF2D"/>
<path d="M89.0221 59.5831C88.23 60.3752 87.035 60.3683 86.2337 59.567C85.4325 58.7657 85.4256 57.5708 86.2176 56.7787C87.0097 55.9866 88.2047 55.9935 89.006 56.7948C89.8072 57.596 89.7481 58.857 89.0221 59.5831Z" fill="#FFCF2D"/>
<path d="M100.974 71.5362C100.182 72.3283 98.9871 72.3214 98.1859 71.5201C97.3846 70.7189 97.3777 69.5239 98.1698 68.7318C98.9619 67.9398 100.157 67.9466 100.958 68.7479C101.693 69.4824 101.7 70.8102 100.974 71.5362Z" fill="#FFCF2D"/>
<path d="M112.926 83.4874C112.134 84.2795 110.939 84.2726 110.138 83.4713C109.337 82.67 109.33 81.4751 110.122 80.683C110.914 79.8909 112.109 79.8978 112.91 80.6991C113.712 81.5003 113.652 82.7613 112.926 83.4874Z" fill="#FFCF2D"/>
<path d="M124.812 95.3741C124.02 96.1662 122.825 96.1593 122.023 95.358C121.222 94.5568 121.215 93.3618 122.007 92.5697C122.799 91.7776 123.994 91.7845 124.796 92.5858C125.597 93.3871 125.538 94.6481 124.812 95.3741Z" fill="#FFCF2D"/>
<path d="M136.764 107.325C135.972 108.117 134.777 108.11 133.976 107.309C133.174 106.508 133.168 105.313 133.96 104.521C134.752 103.729 135.947 103.736 136.748 104.537C137.549 105.338 137.49 106.599 136.764 107.325Z" fill="#FFCF2D"/>
<path d="M148.716 119.278C147.924 120.07 146.729 120.064 145.928 119.262C145.126 118.461 145.119 117.266 145.911 116.474C146.704 115.682 147.899 115.689 148.7 116.49C149.434 117.225 149.442 118.552 148.716 119.278Z" fill="#FFCF2D"/>
<path d="M43.3975 33.629C42.6055 34.4211 41.4105 34.4142 40.6092 33.6129C39.808 32.8116 39.8011 31.6167 40.5931 30.8246C41.3852 30.0325 42.5802 30.0394 43.3815 30.8407C44.1827 31.6419 44.1896 32.8369 43.3975 33.629Z" fill="#FFCF2D"/>
<path d="M55.3497 45.5811C54.5576 46.3732 53.3626 46.3663 52.5614 45.5651C51.7601 44.7638 51.7532 43.5688 52.5453 42.7767C53.3373 41.9847 54.5323 41.9916 55.3336 42.7928C56.0681 43.5273 56.1418 44.7891 55.3497 45.5811Z" fill="#FFCF2D"/>
<path d="M67.2349 57.4659C66.4429 58.258 65.2479 58.2511 64.4466 57.4498C63.6454 56.6486 63.6385 55.4536 64.4305 54.6615C65.2226 53.8694 66.4176 53.8763 67.2189 54.6776C68.0201 55.4789 68.027 56.6738 67.2349 57.4659Z" fill="#FFCF2D"/>
<path d="M79.1873 69.419C78.3953 70.2111 77.2003 70.2042 76.399 69.4029C75.5978 68.6017 75.5909 67.4067 76.3829 66.6146C77.175 65.8226 78.37 65.8295 79.1712 66.6307C79.9725 67.432 79.9794 68.627 79.1873 69.419Z" fill="#FFCF2D"/>
<path d="M91.1392 81.3702C90.3472 82.1623 89.1522 82.1554 88.3509 81.3541C87.5497 80.5529 87.5428 79.3579 88.3348 78.5658C89.1269 77.7737 90.3219 77.7806 91.1231 78.5819C91.8576 79.3164 91.9313 80.5781 91.1392 81.3702Z" fill="#FFCF2D"/>
<path d="M103.091 93.3233C102.299 94.1154 101.104 94.1085 100.303 93.3072C99.5018 92.506 99.4949 91.311 100.287 90.5189C101.079 89.7269 102.274 89.7338 103.075 90.535C103.877 91.3363 103.883 92.5313 103.091 93.3233Z" fill="#FFCF2D"/>
<path d="M114.977 105.208C114.185 106 112.99 105.993 112.189 105.192C111.387 104.391 111.38 103.196 112.172 102.404C112.965 101.612 114.16 101.619 114.961 102.42C115.762 103.221 115.769 104.416 114.977 105.208Z" fill="#FFCF2D"/>
<path d="M126.929 117.161C126.137 117.953 124.942 117.946 124.141 117.145C123.339 116.344 123.333 115.149 124.125 114.357C124.917 113.565 126.112 113.572 126.913 114.373C127.714 115.174 127.721 116.369 126.929 117.161Z" fill="#FFCF2D"/>
<path d="M138.881 129.112C138.089 129.904 136.894 129.898 136.093 129.096C135.292 128.295 135.285 127.1 136.077 126.308C136.869 125.516 138.064 125.523 138.865 126.324C139.6 127.059 139.673 128.32 138.881 129.112Z" fill="#FFCF2D"/>
<path d="M72.836 4.19052C72.044 4.98258 70.849 4.97569 70.0477 4.17443C69.2464 3.37317 69.2395 2.17818 70.0316 1.38611C70.8237 0.594048 72.0187 0.600945 72.8199 1.4022C73.6212 2.20346 73.6281 3.39846 72.836 4.19052Z" fill="#FFCF2D"/>
<path d="M84.7882 16.1427C83.9961 16.9347 82.8011 16.9278 81.9999 16.1266C81.1986 15.3253 81.1917 14.1303 81.9838 13.3383C82.7758 12.5462 83.9708 12.5531 84.7721 13.3544C85.5066 14.0888 85.5802 15.3506 84.7882 16.1427Z" fill="#FFCF2D"/>
<path d="M96.6734 28.0284C95.8814 28.8205 94.6864 28.8136 93.8851 28.0123C93.0838 27.2111 93.077 26.0161 93.869 25.224C94.6611 24.4319 95.9228 24.5056 96.6573 25.2401C97.4586 26.0414 97.4655 27.2363 96.6734 28.0284Z" fill="#FFCF2D"/>
<path d="M108.626 39.9806C107.834 40.7726 106.639 40.7657 105.837 39.9645C105.036 39.1632 105.029 37.9682 105.821 37.1762C106.613 36.3841 107.875 36.4578 108.609 37.1922C109.344 37.9267 109.418 39.1885 108.626 39.9806Z" fill="#FFCF2D"/>
<path d="M120.578 51.9327C119.786 52.7248 118.591 52.7179 117.789 51.9166C116.988 51.1154 116.981 49.9204 117.773 49.1283C118.565 48.3362 119.76 48.3431 120.562 49.1444C121.296 49.8789 121.37 51.1406 120.578 51.9327Z" fill="#FFCF2D"/>
<path d="M132.53 63.8839C131.738 64.676 130.543 64.6691 129.742 63.8678C128.94 63.0665 128.933 61.8715 129.725 61.0795C130.518 60.2874 131.713 60.2943 132.514 61.0956C133.315 61.8968 133.322 63.0918 132.53 63.8839Z" fill="#FFCF2D"/>
<path d="M144.415 75.7706C143.623 76.5627 142.428 76.5558 141.627 75.7545C140.826 74.9533 140.819 73.7583 141.611 72.9662C142.403 72.1741 143.598 72.181 144.399 72.9823C145.201 73.7835 145.207 74.9785 144.415 75.7706Z" fill="#FFCF2D"/>
<path d="M156.368 87.7218C155.575 88.5138 154.38 88.5069 153.579 87.7057C152.778 86.9044 152.771 85.7094 153.563 84.9174C154.355 84.1253 155.55 84.1322 156.351 84.9335C157.153 85.7347 157.16 86.9297 156.368 87.7218Z" fill="#FFCF2D"/>
<path d="M168.319 99.6749C167.527 100.467 166.332 100.46 165.531 99.6588C164.73 98.8575 164.723 97.6626 165.515 96.8705C166.307 96.0784 167.502 96.0853 168.303 96.8866C169.038 97.6211 169.111 98.8828 168.319 99.6749Z" fill="#FFCF2D"/>
<path d="M63.0013 14.0255C62.2092 14.8175 61.0142 14.8107 60.213 14.0094C59.4117 13.2081 59.4708 11.9471 60.1969 11.2211C60.989 10.429 62.184 10.4359 62.9852 11.2372C63.7865 12.0384 63.7934 13.2334 63.0013 14.0255Z" fill="#FFCF2D"/>
<path d="M74.9535 25.9776C74.1614 26.7697 72.9664 26.7628 72.1651 25.9615C71.3639 25.1603 71.357 23.9653 72.149 23.1732C72.9411 22.3812 74.1361 22.3881 74.9374 23.1893C75.6718 23.9238 75.7455 25.1856 74.9535 25.9776Z" fill="#FFCF2D"/>
<path d="M86.8387 37.8624C86.0466 38.6545 84.8516 38.6476 84.0504 37.8463C83.2491 37.045 83.2422 35.8501 84.0343 35.058C84.8264 34.2659 86.0214 34.2728 86.8226 35.0741C87.6239 35.8753 87.6308 37.0703 86.8387 37.8624Z" fill="#FFCF2D"/>
<path d="M98.7911 49.8155C97.999 50.6076 96.804 50.6007 96.0028 49.7994C95.2015 48.9982 95.1946 47.8032 95.9867 47.0111C96.7788 46.219 97.9737 46.2259 98.775 47.0272C99.5763 47.8285 99.5832 49.0235 98.7911 49.8155Z" fill="#FFCF2D"/>
<path d="M110.743 61.7667C109.951 62.5588 108.756 62.5519 107.955 61.7506C107.153 60.9493 107.147 59.7543 107.939 58.9623C108.731 58.1702 109.926 58.1771 110.727 58.9784C111.461 59.7129 111.535 60.9746 110.743 61.7667Z" fill="#FFCF2D"/>
<path d="M122.695 73.7198C121.903 74.5119 120.708 74.505 119.907 73.7037C119.106 72.9025 119.099 71.7075 119.891 70.9154C120.683 70.1233 121.878 70.1302 122.679 70.9315C123.48 71.7328 123.487 72.9278 122.695 73.7198Z" fill="#FFCF2D"/>
<path d="M134.58 85.6046C133.788 86.3967 132.593 86.3898 131.792 85.5885C130.991 84.7872 130.984 83.5922 131.776 82.8002C132.568 82.0081 133.763 82.015 134.564 82.8163C135.366 83.6175 135.372 84.8125 134.58 85.6046Z" fill="#FFCF2D"/>
<path d="M146.533 97.5558C145.741 98.3478 144.546 98.3409 143.744 97.5397C142.943 96.7384 142.936 95.5434 143.728 94.7513C144.52 93.9593 145.715 93.9662 146.517 94.7674C147.318 95.5687 147.325 96.7637 146.533 97.5558Z" fill="#FFCF2D"/>
<path d="M158.485 109.509C157.693 110.301 156.498 110.294 155.696 109.493C154.895 108.692 154.888 107.497 155.68 106.704C156.472 105.912 157.667 105.919 158.469 106.721C159.203 107.455 159.277 108.717 158.485 109.509Z" fill="#FFCF2D"/>
<path d="M33.6287 43.3975C32.8367 44.1896 31.6417 44.1827 30.8404 43.3815C30.0392 42.5802 30.0323 41.3852 30.8243 40.5931C31.6164 39.8011 32.8114 39.808 33.6127 40.6092C34.4139 41.4105 34.3548 42.6715 33.6287 43.3975Z" fill="#FFCF2D"/>
<path d="M45.5809 55.3507C44.7888 56.1427 43.5938 56.1358 42.7926 55.3346C41.9913 54.5333 41.9844 53.3383 42.7765 52.5463C43.5686 51.7542 44.7635 51.7611 45.5648 52.5624C46.2993 53.2968 46.307 54.6246 45.5809 55.3507Z" fill="#FFCF2D"/>
<path d="M57.4661 67.2354C56.6741 68.0275 55.4791 68.0206 54.6778 67.2193C53.8766 66.4181 53.8697 65.2231 54.6617 64.431C55.4538 63.639 56.6488 63.6459 57.4501 64.4471C58.2513 65.2484 58.1922 66.5094 57.4661 67.2354Z" fill="#FFCF2D"/>
<path d="M69.4183 79.1866C68.6262 79.9787 67.4312 79.9718 66.63 79.1705C65.8287 78.3693 65.8218 77.1743 66.6139 76.3822C67.406 75.5901 68.6009 75.597 69.4022 76.3983C70.2035 77.1996 70.1444 78.4606 69.4183 79.1866Z" fill="#FFCF2D"/>
<path d="M81.3704 91.1397C80.5784 91.9318 79.3834 91.9249 78.5821 91.1236C77.7809 90.3224 77.774 89.1274 78.566 88.3353C79.3581 87.5433 80.5531 87.5502 81.3544 88.3514C82.0888 89.0859 82.0965 90.4137 81.3704 91.1397Z" fill="#FFCF2D"/>
<path d="M93.3226 103.091C92.5305 103.883 91.3355 103.876 90.5343 103.075C89.733 102.274 89.7261 101.079 90.5182 100.287C91.3102 99.4944 92.5052 99.5013 93.3065 100.303C94.1078 101.104 94.0487 102.365 93.3226 103.091Z" fill="#FFCF2D"/>
<path d="M105.208 114.978C104.416 115.77 103.221 115.763 102.42 114.962C101.618 114.16 101.611 112.965 102.403 112.173C103.196 111.381 104.391 111.388 105.192 112.189C105.993 112.991 105.934 114.252 105.208 114.978Z" fill="#FFCF2D"/>
<path d="M117.16 126.929C116.368 127.721 115.173 127.714 114.372 126.913C113.571 126.111 113.564 124.916 114.356 124.124C115.148 123.332 116.343 123.339 117.144 124.14C117.945 124.942 117.886 126.203 117.16 126.929Z" fill="#FFCF2D"/>
<path d="M129.112 138.882C128.32 139.674 127.125 139.667 126.324 138.866C125.523 138.065 125.516 136.87 126.308 136.078C127.1 135.285 128.295 135.292 129.096 136.094C129.831 136.828 129.838 138.156 129.112 138.882Z" fill="#FFCF2D"/>
<path d="M23.794 53.2315C23.002 54.0236 21.807 54.0167 21.0057 53.2154C20.2045 52.4142 20.1976 51.2192 20.9896 50.4271C21.7817 49.6351 22.9767 49.642 23.7779 50.4432C24.5792 51.2445 24.5861 52.4395 23.794 53.2315Z" fill="#FFCF2D"/>
<path d="M35.7462 65.1847C34.9541 65.9767 33.7591 65.9698 32.9579 65.1686C32.1566 64.3673 32.1497 63.1723 32.9418 62.3802C33.7338 61.5882 34.9288 61.5951 35.7301 62.3963C36.4646 63.1308 36.5382 64.3926 35.7462 65.1847Z" fill="#FFCF2D"/>
<path d="M47.6317 77.0694C46.8396 77.8615 45.6446 77.8546 44.8434 77.0533C44.0421 76.2521 44.0352 75.0571 44.8273 74.265C45.6193 73.473 46.8143 73.4798 47.6156 74.2811C48.4168 75.0824 48.4237 76.2774 47.6317 77.0694Z" fill="#FFCF2D"/>
<path d="M56.7953 89.0065C57.5697 89.7809 58.8181 89.7881 59.5836 89.0225C60.3491 88.257 60.3419 87.0086 59.5675 86.2342C58.7931 85.4598 57.5447 85.4526 56.7792 86.2181C56.0136 86.9837 56.0209 88.232 56.7953 89.0065Z" fill="#FFCF2D"/>
<path d="M71.536 100.974C70.7439 101.766 69.5489 101.759 68.7477 100.958C67.9464 100.156 67.9395 98.9614 68.7316 98.1693C69.5236 97.3772 70.7186 97.3841 71.5199 98.1854C72.2544 98.9199 72.328 100.182 71.536 100.974Z" fill="#FFCF2D"/>
<path d="M83.4879 112.927C82.6958 113.719 81.5008 113.712 80.6996 112.911C79.8983 112.109 79.8914 110.915 80.6835 110.122C81.4755 109.33 82.6705 109.337 83.4718 110.139C84.273 110.94 84.2799 112.135 83.4879 112.927Z" fill="#FFCF2D"/>
<path d="M95.3734 124.812C94.5813 125.604 93.3863 125.597 92.5851 124.796C91.7838 123.994 91.7769 122.799 92.569 122.007C93.361 121.215 94.556 121.222 95.3573 122.023C96.1585 122.825 96.1654 124.02 95.3734 124.812Z" fill="#FFCF2D"/>
<path d="M104.537 136.749C105.312 137.523 106.56 137.53 107.326 136.765C108.091 135.999 108.084 134.751 107.309 133.976C106.535 133.202 105.287 133.195 104.521 133.96C103.756 134.726 103.763 135.974 104.537 136.749Z" fill="#FFCF2D"/>
<path d="M119.278 148.716C118.486 149.508 117.291 149.501 116.489 148.7C115.688 147.899 115.681 146.704 116.473 145.911C117.265 145.119 118.46 145.126 119.262 145.928C119.996 146.662 120.07 147.924 119.278 148.716Z" fill="#FFCF2D"/>
<path d="M13.9591 63.0675C13.167 63.8595 11.972 63.8526 11.1708 63.0514C10.3695 62.2501 10.3626 61.0551 11.1547 60.2631C11.9467 59.471 13.1417 59.4779 13.943 60.2792C14.7442 61.0804 14.7511 62.2754 13.9591 63.0675Z" fill="#FFCF2D"/>
<path d="M25.911 75.0206C25.1189 75.8127 23.9239 75.8058 23.1227 75.0045C22.3214 74.2032 22.3145 73.0083 23.1066 72.2162C23.8986 71.4241 25.0936 71.431 25.8949 72.2323C26.6294 72.9668 26.703 74.2285 25.911 75.0206Z" fill="#FFCF2D"/>
<path d="M37.7965 86.9054C37.0044 87.6974 35.8094 87.6905 35.0082 86.8893C34.2069 86.088 34.2 84.893 34.9921 84.101C35.7841 83.3089 36.9791 83.3158 37.7804 84.117C38.5816 84.9183 38.5885 86.1133 37.7965 86.9054Z" fill="#FFCF2D"/>
<path d="M49.7486 98.8565C48.9566 99.6486 47.7616 99.6417 46.9603 98.8404C46.159 98.0392 46.1521 96.8442 46.9442 96.0521C47.7363 95.2601 48.9313 95.267 49.7325 96.0682C50.5338 96.8695 50.5407 98.0645 49.7486 98.8565Z" fill="#FFCF2D"/>
<path d="M61.7008 110.81C60.9087 111.602 59.7137 111.595 58.9125 110.794C58.1112 109.992 58.1043 108.797 58.8964 108.005C59.6884 107.213 60.8834 107.22 61.6847 108.021C62.4192 108.756 62.4928 110.018 61.7008 110.81Z" fill="#FFCF2D"/>
<path d="M73.6529 122.761C72.8609 123.553 71.6659 123.546 70.8646 122.745C70.0633 121.943 70.0564 120.748 70.8485 119.956C71.6406 119.164 72.8356 119.171 73.6368 119.973C74.4381 120.774 74.445 121.969 73.6529 122.761Z" fill="#FFCF2D"/>
<path d="M85.5382 134.648C84.7461 135.44 83.5511 135.433 82.7499 134.631C81.9486 133.83 81.9417 132.635 82.7338 131.843C83.5258 131.051 84.7208 131.058 85.5221 131.859C86.3233 132.661 86.3302 133.855 85.5382 134.648Z" fill="#FFCF2D"/>
<path d="M97.4903 146.599C96.6983 147.391 95.5033 147.384 94.702 146.583C93.9007 145.781 93.8938 144.586 94.6859 143.794C95.478 143.002 96.673 143.009 97.4742 143.81C98.2755 144.612 98.2824 145.807 97.4903 146.599Z" fill="#FFCF2D"/>
<path d="M109.442 158.552C108.65 159.344 107.455 159.337 106.654 158.536C105.853 157.734 105.846 156.54 106.638 155.747C107.43 154.955 108.625 154.962 109.426 155.764C110.161 156.498 110.235 157.76 109.442 158.552Z" fill="#FFCF2D"/>
<path d="M4.19052 72.835C3.39845 73.6271 2.20346 73.6202 1.4022 72.819C0.600943 72.0177 0.594044 70.8227 1.38611 70.0306C2.17817 69.2386 3.37316 69.2455 4.17442 70.0467C4.97568 70.848 4.91657 72.109 4.19052 72.835Z" fill="#FFCF2D"/>
<path d="M16.1427 84.7882C15.3506 85.5802 14.1556 85.5733 13.3544 84.7721C12.5531 83.9708 12.5462 82.7758 13.3383 81.9838C14.1303 81.1917 15.3253 81.1986 16.1266 81.9999C16.8611 82.7343 16.8687 84.0621 16.1427 84.7882Z" fill="#FFCF2D"/>
<path d="M28.0282 96.6729C27.2361 97.465 26.0411 97.4581 25.2398 96.6568C24.4386 95.8556 24.4317 94.6606 25.2238 93.8685C26.0158 93.0765 27.2108 93.0834 28.0121 93.8846C28.8133 94.6859 28.7542 95.9469 28.0282 96.6729Z" fill="#FFCF2D"/>
<path d="M39.9801 108.626C39.188 109.418 37.993 109.411 37.1918 108.61C36.3905 107.809 36.3836 106.614 37.1757 105.822C37.9677 105.03 39.1627 105.036 39.964 105.838C40.7652 106.639 40.7061 107.9 39.9801 108.626Z" fill="#FFCF2D"/>
<path d="M51.9322 120.577C51.1401 121.369 49.9452 121.362 49.1439 120.561C48.3426 119.76 48.3357 118.565 49.1278 117.773C49.9199 116.981 51.1149 116.988 51.9161 117.789C52.6506 118.523 52.6583 119.851 51.9322 120.577Z" fill="#FFCF2D"/>
<path d="M63.8844 132.53C63.0923 133.322 61.8973 133.316 61.096 132.514C60.2948 131.713 60.2879 130.518 61.08 129.726C61.872 128.934 63.067 128.941 63.8683 129.742C64.6695 130.543 64.6104 131.804 63.8844 132.53Z" fill="#FFCF2D"/>
<path d="M75.7699 144.415C74.9778 145.207 73.7828 145.2 72.9816 144.399C72.1803 143.598 72.1734 142.403 72.9655 141.611C73.7575 140.819 74.9525 140.826 75.7538 141.627C76.555 142.428 76.4959 143.689 75.7699 144.415Z" fill="#FFCF2D"/>
<path d="M87.722 156.368C86.93 157.16 85.735 157.153 84.9337 156.352C84.1324 155.551 84.1255 154.356 84.9176 153.564C85.7097 152.772 86.9047 152.779 87.7059 153.58C88.5072 154.381 88.4481 155.642 87.722 156.368Z" fill="#FFCF2D"/>
<path d="M99.6742 168.319C98.8821 169.111 97.6871 169.105 96.8859 168.303C96.0846 167.502 96.0777 166.307 96.8698 165.515C97.6618 164.723 98.8568 164.73 99.6581 165.531C100.393 166.266 100.4 167.593 99.6742 168.319Z" fill="#FFCF2D"/>
</g>
<defs>
<clipPath id="clip0_2327_2611">
<rect width="139" height="101" fill="white" transform="translate(71.4177) rotate(45)"/>
</clipPath>
</defs>
</svg>
