<svg width="177" height="163" viewBox="0 0 177 163" fill="none" xmlns="http://www.w3.org/2000/svg">
<g opacity="0.8" clip-path="url(#clip0_2282_629)">
<path d="M18.9634 96.1857C19.5456 97.1942 19.2251 98.3878 18.2155 98.9706C17.206 99.5535 16.0121 99.2343 15.4298 98.2258C14.8476 97.2173 15.1681 96.0238 16.1777 95.4409C17.1872 94.858 18.4296 95.2613 18.9634 96.1857Z" fill="#FFCF2D"/>
<path d="M34.0229 87.4904C34.6052 88.4989 34.2847 89.6924 33.2751 90.2753C32.2655 90.8582 31.0717 90.539 30.4894 89.5305C29.9071 88.522 30.2276 87.3285 31.2372 86.7456C32.1627 86.2113 33.4892 86.566 34.0229 87.4904Z" fill="#FFCF2D"/>
<path d="M48.9983 78.8439C49.5805 79.8524 49.26 81.046 48.2505 81.6288C47.2409 82.2117 46.047 81.8925 45.4647 80.884C44.8825 79.8755 45.203 78.682 46.2126 78.0991C47.2221 77.5162 48.4645 77.9195 48.9983 78.8439Z" fill="#FFCF2D"/>
<path d="M64.0578 70.1506C64.6401 71.1591 64.3196 72.3526 63.31 72.9355C62.3004 73.5184 61.1066 73.1991 60.5243 72.1906C59.9421 71.1822 60.2626 69.9886 61.2721 69.4057C62.2817 68.8229 63.5241 69.2261 64.0578 70.1506Z" fill="#FFCF2D"/>
<path d="M79.1174 61.4553C79.6997 62.4638 79.3792 63.6573 78.3696 64.2402C77.36 64.823 76.1661 64.5038 75.5839 63.4953C75.0016 62.4868 75.3221 61.2933 76.3317 60.7104C77.2571 60.1761 78.5837 60.5308 79.1174 61.4553Z" fill="#FFCF2D"/>
<path d="M94.177 52.7599C94.7592 53.7684 94.4387 54.962 93.4292 55.5449C92.4196 56.1277 91.2257 55.8085 90.6435 54.8C90.0612 53.7915 90.3817 52.598 91.3913 52.0151C92.4008 51.4322 93.6432 51.8355 94.177 52.7599Z" fill="#FFCF2D"/>
<path d="M109.152 44.1135C109.735 45.122 109.414 46.3155 108.405 46.8984C107.395 47.4812 106.201 47.162 105.619 46.1535C105.037 45.145 105.357 43.9515 106.367 43.3686C107.376 42.7857 108.619 43.189 109.152 44.1135Z" fill="#FFCF2D"/>
<path d="M124.212 35.4201C124.794 36.4286 124.474 37.6221 123.464 38.205C122.454 38.7879 121.261 38.4687 120.678 37.4602C120.096 36.4517 120.417 35.2582 121.426 34.6753C122.436 34.0924 123.678 34.4956 124.212 35.4201Z" fill="#FFCF2D"/>
<path d="M139.271 26.7248C139.854 27.7333 139.533 28.9268 138.524 29.5097C137.514 30.0926 136.32 29.7734 135.738 28.7649C135.156 27.7564 135.476 26.5628 136.486 25.98C137.411 25.4457 138.738 25.8003 139.271 26.7248Z" fill="#FFCF2D"/>
<path d="M26.1929 108.707C26.7751 109.716 26.4546 110.909 25.445 111.492C24.4355 112.075 23.2416 111.756 22.6593 110.747C22.0771 109.739 22.3976 108.545 23.4071 107.962C24.4167 107.38 25.6106 107.699 26.1929 108.707Z" fill="#FFCF2D"/>
<path d="M41.2524 100.012C41.8347 101.02 41.5142 102.214 40.5046 102.797C39.495 103.38 38.3012 103.06 37.7189 102.052C37.1366 101.043 37.4571 99.8499 38.4667 99.2671C39.3922 98.7328 40.6702 99.0034 41.2524 100.012Z" fill="#FFCF2D"/>
<path d="M56.2278 91.3654C56.81 92.3739 56.4895 93.5674 55.4799 94.1503C54.4704 94.7332 53.2765 94.414 52.6942 93.4055C52.112 92.397 52.4325 91.2035 53.4421 90.6206C54.4516 90.0377 55.6455 90.3569 56.2278 91.3654Z" fill="#FFCF2D"/>
<path d="M71.2873 82.6721C71.8696 83.6805 71.5491 84.8741 70.5395 85.457C69.5299 86.0398 68.3361 85.7206 67.7538 84.7121C67.1716 83.7036 67.492 82.5101 68.5016 81.9272C69.5112 81.3443 70.7051 81.6636 71.2873 82.6721Z" fill="#FFCF2D"/>
<path d="M86.3469 73.9767C86.9292 74.9852 86.6087 76.1788 85.5991 76.7616C84.5895 77.3445 83.3956 77.0253 82.8134 76.0168C82.2311 75.0083 82.5516 73.8148 83.5612 73.2319C84.4866 72.6976 85.7646 72.9682 86.3469 73.9767Z" fill="#FFCF2D"/>
<path d="M101.406 65.2834C101.989 66.2919 101.668 67.4854 100.659 68.0683C99.6491 68.6512 98.4552 68.332 97.873 67.3235C97.2907 66.315 97.6112 65.1214 98.6208 64.5386C99.6303 63.9557 100.824 64.2749 101.406 65.2834Z" fill="#FFCF2D"/>
<path d="M116.382 56.6369C116.964 57.6454 116.644 58.8389 115.634 59.4218C114.624 60.0047 113.431 59.6855 112.848 58.677C112.266 57.6685 112.587 56.4749 113.596 55.8921C114.606 55.3092 115.8 55.6284 116.382 56.6369Z" fill="#FFCF2D"/>
<path d="M131.441 47.9416C132.024 48.9501 131.703 50.1436 130.694 50.7265C129.684 51.3094 128.49 50.9902 127.908 49.9817C127.326 48.9732 127.646 47.7796 128.656 47.1968C129.665 46.6139 130.859 46.9331 131.441 47.9416Z" fill="#FFCF2D"/>
<path d="M146.501 39.2463C147.083 40.2548 146.763 41.4483 145.753 42.0312C144.744 42.6141 143.55 42.2948 142.967 41.2864C142.385 40.2779 142.706 39.0843 143.715 38.5014C144.641 37.9671 145.919 38.2378 146.501 39.2463Z" fill="#FFCF2D"/>
<path d="M4.55247 71.2248C5.13473 72.2333 4.81423 73.4268 3.80465 74.0097C2.79508 74.5926 1.6012 74.2734 1.01895 73.2649C0.436691 72.2564 0.757184 71.0628 1.76676 70.48C2.77634 69.8971 3.97022 70.2163 4.55247 71.2248Z" fill="#FFCF2D"/>
<path d="M19.612 62.5295C20.1943 63.538 19.8738 64.7315 18.8642 65.3144C17.8546 65.8973 16.6608 65.578 16.0785 64.5696C15.4963 63.5611 15.8168 62.3675 16.8263 61.7846C17.7518 61.2503 19.0298 61.521 19.612 62.5295Z" fill="#FFCF2D"/>
<path d="M34.5874 53.8849C35.1696 54.8934 34.8491 56.087 33.8396 56.6699C32.83 57.2527 31.6361 56.9335 31.0539 55.925C30.4716 54.9165 30.8762 53.6744 31.8017 53.1401C32.8113 52.5572 34.0051 52.8764 34.5874 53.8849Z" fill="#FFCF2D"/>
<path d="M49.647 45.1896C50.2292 46.1981 49.9087 47.3917 48.8991 47.9745C47.8896 48.5574 46.6957 48.2382 46.1134 47.2297C45.5312 46.2212 45.9358 44.9791 46.8612 44.4448C47.7867 43.9105 49.0647 44.1811 49.647 45.1896Z" fill="#FFCF2D"/>
<path d="M64.7065 36.4943C65.2888 37.5028 64.9683 38.6963 63.9587 39.2792C62.9491 39.8621 61.7553 39.5429 61.173 38.5344C60.5907 37.5259 60.9112 36.3324 61.9208 35.7495C62.8463 35.2152 64.1243 35.4858 64.7065 36.4943Z" fill="#FFCF2D"/>
<path d="M79.7661 27.801C80.3483 28.8095 80.0279 30.003 79.0183 30.5859C78.0087 31.1687 76.8148 30.8495 76.2326 29.841C75.6503 28.8325 75.9708 27.639 76.9804 27.0561C77.99 26.4733 79.1838 26.7925 79.7661 27.801Z" fill="#FFCF2D"/>
<path d="M94.7414 19.1545C95.3237 20.163 95.0032 21.3565 93.9936 21.9394C92.984 22.5223 91.7902 22.203 91.2079 21.1946C90.6257 20.1861 90.9462 18.9925 91.9557 18.4096C92.9653 17.8268 94.1592 18.146 94.7414 19.1545Z" fill="#FFCF2D"/>
<path d="M109.801 10.4592C110.383 11.4677 110.063 12.6612 109.053 13.2441C108.044 13.8269 106.85 13.5077 106.267 12.4992C105.685 11.4907 106.006 10.2972 107.015 9.71434C108.025 9.13146 109.219 9.45067 109.801 10.4592Z" fill="#FFCF2D"/>
<path d="M124.861 1.76385C125.443 2.77235 125.122 3.96587 124.113 4.54875C123.103 5.13163 121.909 4.81242 121.327 3.80393C120.745 2.79543 121.065 1.6019 122.075 1.01902C123 0.484714 124.278 0.755357 124.861 1.76385Z" fill="#FFCF2D"/>
<path d="M11.7822 83.7463C12.3645 84.7548 12.044 85.9483 11.0344 86.5312C10.0248 87.1141 8.78242 86.7108 8.24868 85.7864C7.66643 84.7779 7.98692 83.5843 8.9965 83.0014C10.0061 82.4186 11.2 82.7378 11.7822 83.7463Z" fill="#FFCF2D"/>
<path d="M26.8418 75.0529C27.424 76.0614 27.1035 77.2549 26.094 77.8378C25.0844 78.4207 23.8905 78.1015 23.3083 77.093C22.726 76.0845 23.0465 74.891 24.0561 74.3081C24.9815 73.7738 26.2595 74.0444 26.8418 75.0529Z" fill="#FFCF2D"/>
<path d="M41.8171 66.4064C42.3994 67.4149 42.0789 68.6085 41.0693 69.1913C40.0597 69.7742 38.8658 69.455 38.2836 68.4465C37.7013 67.438 38.0218 66.2445 39.0314 65.6616C40.041 65.0787 41.2349 65.3979 41.8171 66.4064Z" fill="#FFCF2D"/>
<path d="M56.8767 57.7111C57.4589 58.7196 57.1385 59.9131 56.1289 60.496C55.1193 61.0789 53.9254 60.7597 53.3432 59.7512C52.7609 58.7427 53.0814 57.5492 54.091 56.9663C55.1006 56.3834 56.2944 56.7026 56.8767 57.7111Z" fill="#FFCF2D"/>
<path d="M71.9363 49.0178C72.5185 50.0263 72.198 51.2198 71.1884 51.8027C70.1789 52.3855 68.985 52.0663 68.4027 51.0578C67.8205 50.0493 68.141 48.8558 69.1505 48.2729C70.076 47.7386 71.354 48.0093 71.9363 49.0178Z" fill="#FFCF2D"/>
<path d="M86.9958 40.3224C87.5781 41.3309 87.2576 42.5245 86.248 43.1074C85.2384 43.6902 84.0446 43.371 83.4623 42.3625C82.8801 41.354 83.2005 40.1605 84.2101 39.5776C85.2197 38.9947 86.4136 39.314 86.9958 40.3224Z" fill="#FFCF2D"/>
<path d="M101.971 31.676C102.553 32.6845 102.233 33.878 101.223 34.4609C100.214 35.0437 99.0199 34.7245 98.4376 33.716C97.8554 32.7075 98.1759 31.514 99.1855 30.9311C100.195 30.3482 101.389 30.6675 101.971 31.676Z" fill="#FFCF2D"/>
<path d="M117.031 22.9826C117.613 23.9911 117.292 25.1846 116.283 25.7675C115.273 26.3504 114.079 26.0312 113.497 25.0227C112.915 24.0142 113.235 22.8207 114.245 22.2378C115.255 21.6549 116.448 21.9741 117.031 22.9826Z" fill="#FFCF2D"/>
<path d="M132.09 14.2873C132.673 15.2958 132.352 16.4893 131.342 17.0722C130.333 17.6551 129.139 17.3359 128.557 16.3274C127.975 15.3189 128.295 14.1253 129.305 13.5425C130.23 13.0082 131.508 13.2788 132.09 14.2873Z" fill="#FFCF2D"/>
<path d="M33.3742 121.145C33.9565 122.153 33.636 123.347 32.6264 123.93C31.6169 124.512 30.423 124.193 29.8407 123.185C29.2585 122.176 29.579 120.983 30.5885 120.4C31.5981 119.817 32.8405 120.22 33.3742 121.145Z" fill="#FFCF2D"/>
<path d="M48.4336 112.451C49.0158 113.46 48.6953 114.653 47.6858 115.236C46.6762 115.819 45.4823 115.5 44.9001 114.491C44.3178 113.483 44.6383 112.289 45.6479 111.707C46.5733 111.172 47.8998 111.527 48.4336 112.451Z" fill="#FFCF2D"/>
<path d="M63.4092 103.805C63.9914 104.813 63.6709 106.007 62.6613 106.59C61.6518 107.173 60.4579 106.853 59.8756 105.845C59.2934 104.836 59.6139 103.643 60.6234 103.06C61.633 102.477 62.8754 102.88 63.4092 103.805Z" fill="#FFCF2D"/>
<path d="M78.4687 95.1096C79.051 96.118 78.7305 97.3116 77.7209 97.8945C76.7113 98.4773 75.5175 98.1581 74.9352 97.1496C74.353 96.1411 74.6734 94.9476 75.683 94.3647C76.6926 93.7818 77.935 94.1851 78.4687 95.1096Z" fill="#FFCF2D"/>
<path d="M93.5283 86.4162C94.1105 87.4247 93.7901 88.6182 92.7805 89.2011C91.7709 89.784 90.577 89.4648 89.9948 88.4563C89.4125 87.4478 89.733 86.2542 90.7426 85.6714C91.668 85.1371 92.9946 85.4917 93.5283 86.4162Z" fill="#FFCF2D"/>
<path d="M108.588 77.7209C109.17 78.7294 108.85 79.9229 107.84 80.5058C106.83 81.0887 105.637 80.7695 105.054 79.761C104.472 78.7525 104.793 77.5589 105.802 76.9761C106.812 76.3932 108.054 76.7964 108.588 77.7209Z" fill="#FFCF2D"/>
<path d="M123.563 69.0744C124.145 70.0829 123.825 71.2764 122.815 71.8593C121.806 72.4422 120.612 72.123 120.03 71.1145C119.447 70.106 119.768 68.9124 120.778 68.3296C121.787 67.7467 123.029 68.1499 123.563 69.0744Z" fill="#FFCF2D"/>
<path d="M138.623 60.3791C139.205 61.3876 138.885 62.5811 137.875 63.164C136.865 63.7469 135.672 63.4277 135.089 62.4192C134.507 61.4107 134.827 60.2171 135.837 59.6343C136.847 59.0514 138.089 59.4546 138.623 60.3791Z" fill="#FFCF2D"/>
<path d="M153.682 51.6857C154.265 52.6942 153.944 53.8878 152.935 54.4706C151.925 55.0535 150.731 54.7343 150.149 53.7258C149.567 52.7173 149.887 51.5238 150.897 50.9409C151.822 50.4066 153.149 50.7613 153.682 51.6857Z" fill="#FFCF2D"/>
<path d="M40.6037 133.668C41.186 134.677 40.8655 135.87 39.8559 136.453C38.8463 137.036 37.6525 136.717 37.0702 135.708C36.488 134.7 36.8085 133.506 37.818 132.923C38.8276 132.34 40.0215 132.66 40.6037 133.668Z" fill="#FFCF2D"/>
<path d="M55.6633 124.973C56.2456 125.981 55.9251 127.175 54.9155 127.758C53.9059 128.341 52.712 128.021 52.1298 127.013C51.5475 126.004 51.868 124.811 52.8776 124.228C53.803 123.694 55.0811 123.964 55.6633 124.973Z" fill="#FFCF2D"/>
<path d="M70.6387 116.326C71.2209 117.335 70.9004 118.528 69.8908 119.111C68.8813 119.694 67.6874 119.375 67.1051 118.366C66.5229 117.358 66.8434 116.164 67.8529 115.582C68.8625 114.999 70.0564 115.318 70.6387 116.326Z" fill="#FFCF2D"/>
<path d="M84.9504 110.416C85.9262 109.853 86.261 108.606 85.6982 107.631C85.1355 106.656 83.8883 106.323 82.9125 106.886C81.9368 107.45 81.6019 108.696 82.1647 109.671C82.7274 110.646 83.9747 110.979 84.9504 110.416Z" fill="#FFCF2D"/>
<path d="M100.758 98.9377C101.34 99.9462 101.02 101.14 100.01 101.723C99.0004 102.305 97.8065 101.986 97.2243 100.978C96.642 99.9693 96.9625 98.7757 97.9721 98.1929C98.8975 97.6585 100.176 97.9292 100.758 98.9377Z" fill="#FFCF2D"/>
<path d="M115.817 90.2424C116.4 91.2509 116.079 92.4444 115.07 93.0273C114.06 93.6102 112.866 93.2909 112.284 92.2824C111.702 91.2739 112.022 90.0804 113.032 89.4975C114.041 88.9147 115.235 89.2339 115.817 90.2424Z" fill="#FFCF2D"/>
<path d="M130.793 81.5959C131.375 82.6044 131.054 83.7979 130.045 84.3808C129.035 84.9637 127.841 84.6445 127.259 83.636C126.677 82.6275 126.997 81.4339 128.007 80.8511C129.017 80.2682 130.21 80.5874 130.793 81.5959Z" fill="#FFCF2D"/>
<path d="M145.104 75.6874C146.08 75.1241 146.415 73.8772 145.852 72.9025C145.29 71.9278 144.042 71.5943 143.067 72.1577C142.091 72.721 141.756 73.9679 142.319 74.9426C142.881 75.9173 144.129 76.2508 145.104 75.6874Z" fill="#FFCF2D"/>
<path d="M160.912 64.2072C161.494 65.2157 161.174 66.4092 160.164 66.9921C159.154 67.575 157.961 67.2558 157.378 66.2473C156.796 65.2388 157.117 64.0453 158.126 63.4624C159.052 62.9281 160.33 63.1987 160.912 64.2072Z" fill="#FFCF2D"/>
<path d="M47.8335 146.19C48.4157 147.198 48.0952 148.392 47.0857 148.975C46.0761 149.557 44.8822 149.238 44.3 148.23C43.7177 147.221 44.0382 146.028 45.0478 145.445C46.0573 144.862 47.2512 145.181 47.8335 146.19Z" fill="#FFCF2D"/>
<path d="M62.893 137.494C63.4753 138.503 63.1548 139.696 62.1452 140.279C61.1357 140.862 59.9418 140.543 59.3595 139.534C58.7773 138.526 59.0978 137.332 60.1073 136.749C61.0328 136.215 62.3108 136.486 62.893 137.494Z" fill="#FFCF2D"/>
<path d="M77.8684 128.85C78.4506 129.858 78.1302 131.052 77.1206 131.635C76.111 132.218 74.9171 131.898 74.3349 130.89C73.7526 129.881 74.0731 128.688 75.0827 128.105C76.0923 127.522 77.2861 127.841 77.8684 128.85Z" fill="#FFCF2D"/>
<path d="M92.928 120.154C93.5102 121.163 93.1897 122.357 92.1801 122.939C91.1706 123.522 89.9767 123.203 89.3944 122.195C88.8122 121.186 89.1327 119.993 90.1423 119.41C91.1518 118.827 92.3457 119.146 92.928 120.154Z" fill="#FFCF2D"/>
<path d="M107.988 111.459C108.57 112.468 108.249 113.661 107.24 114.244C106.23 114.827 105.036 114.508 104.454 113.499C103.872 112.491 104.192 111.297 105.202 110.714C106.127 110.18 107.405 110.451 107.988 111.459Z" fill="#FFCF2D"/>
<path d="M123.047 102.766C123.629 103.774 123.309 104.968 122.299 105.551C121.29 106.134 120.096 105.814 119.514 104.806C118.931 103.797 119.252 102.604 120.261 102.021C121.271 101.438 122.465 101.757 123.047 102.766Z" fill="#FFCF2D"/>
<path d="M138.023 94.1193C138.605 95.1278 138.284 96.3213 137.275 96.9042C136.265 97.4871 135.071 97.1679 134.489 96.1594C133.907 95.1509 134.227 93.9574 135.237 93.3745C136.247 92.7916 137.44 93.1108 138.023 94.1193Z" fill="#FFCF2D"/>
<path d="M153.082 85.424C153.665 86.4325 153.344 87.626 152.334 88.2089C151.325 88.7918 150.131 88.4726 149.549 87.4641C148.966 86.4556 149.287 85.2621 150.297 84.6792C151.306 84.0963 152.5 84.4155 153.082 85.424Z" fill="#FFCF2D"/>
<path d="M168.142 76.7307C168.724 77.7391 168.403 78.9327 167.394 79.5156C166.384 80.0984 165.19 79.7792 164.608 78.7707C164.026 77.7622 164.346 76.5687 165.356 75.9858C166.281 75.4515 167.559 75.7222 168.142 76.7307Z" fill="#FFCF2D"/>
<path d="M55.0146 158.627C55.5969 159.636 55.2764 160.829 54.2668 161.412C53.2572 161.995 52.0634 161.676 51.4811 160.667C50.8988 159.659 51.2193 158.465 52.2289 157.882C53.2385 157.299 54.4809 157.703 55.0146 158.627Z" fill="#FFCF2D"/>
<path d="M70.0742 149.934C70.6565 150.942 70.336 152.136 69.3264 152.719C68.3168 153.302 67.1229 152.982 66.5407 151.974C65.9584 150.965 66.2789 149.772 67.2885 149.189C68.2139 148.655 69.5405 149.009 70.0742 149.934Z" fill="#FFCF2D"/>
<path d="M85.0495 141.287C85.6318 142.296 85.3113 143.489 84.3017 144.072C83.2921 144.655 82.0983 144.336 81.516 143.327C80.9338 142.319 81.2543 141.125 82.2638 140.542C83.2734 139.96 84.5158 140.363 85.0495 141.287Z" fill="#FFCF2D"/>
<path d="M100.109 132.592C100.691 133.6 100.371 134.794 99.3613 135.377C98.3517 135.96 97.1578 135.641 96.5756 134.632C95.9933 133.624 96.3138 132.43 97.3234 131.847C98.333 131.264 99.5754 131.668 100.109 132.592Z" fill="#FFCF2D"/>
<path d="M115.169 123.899C115.751 124.907 115.43 126.101 114.421 126.684C113.411 127.266 112.217 126.947 111.635 125.939C111.053 124.93 111.373 123.737 112.383 123.154C113.308 122.619 114.635 122.974 115.169 123.899Z" fill="#FFCF2D"/>
<path d="M130.228 115.203C130.811 116.212 130.49 117.405 129.48 117.988C128.471 118.571 127.277 118.252 126.695 117.243C126.112 116.235 126.433 115.041 127.443 114.458C128.452 113.876 129.695 114.279 130.228 115.203Z" fill="#FFCF2D"/>
<path d="M145.204 106.557C145.786 107.565 145.465 108.759 144.456 109.342C143.446 109.925 142.252 109.605 141.67 108.597C141.088 107.588 141.408 106.395 142.418 105.812C143.427 105.229 144.67 105.632 145.204 106.557Z" fill="#FFCF2D"/>
<path d="M160.263 97.8615C160.845 98.87 160.525 100.064 159.515 100.646C158.506 101.229 157.312 100.91 156.73 99.9016C156.147 98.8931 156.468 97.6996 157.477 97.1167C158.487 96.5338 159.729 96.9371 160.263 97.8615Z" fill="#FFCF2D"/>
<path d="M175.323 89.1682C175.905 90.1766 175.585 91.3702 174.575 91.9531C173.565 92.5359 172.371 92.2167 171.789 91.2082C171.207 90.1997 171.527 89.0062 172.537 88.4233C173.462 87.889 174.789 88.2437 175.323 89.1682Z" fill="#FFCF2D"/>
</g>
<defs>
<clipPath id="clip0_2282_629">
<rect width="143" height="105" fill="white" transform="translate(0 71.5) rotate(-30)"/>
</clipPath>
</defs>
</svg>
